<svg
      id="logo"
      width="1185"
      height="110"
      viewBox="0 0 1185 110"
      fill="none"
      xmlns="http://www.w3.org/2000/svg"
    >
      <path
        d="M16.3828 65.9219V106H2.88281V3.625H40.6406C51.8438 3.625 60.6094 6.48438 66.9375 12.2031C73.3125 17.9219 76.5 25.4922 76.5 34.9141C76.5 44.8516 73.3828 52.5156 67.1484 57.9062C60.9609 63.25 52.0781 65.9219 40.5 65.9219H16.3828ZM16.3828 54.8828H40.6406C47.8594 54.8828 53.3906 53.1953 57.2344 49.8203C61.0781 46.3984 63 41.4766 63 35.0547C63 28.9609 61.0781 24.0859 57.2344 20.4297C53.3906 16.7734 48.1172 14.875 41.4141 14.7344H16.3828V54.8828Z"
        stroke="black"
        stroke-width="4"
        mask="url(#path-1-outside-1)"
      />
      <path
        d="M108.211 106H94.7109V3.625H108.211V106Z"
        stroke="black"
        stroke-width="4"
        mask="url(#path-1-outside-1)"
      />
      <path
        d="M162.211 55.0234L188.93 3.625H204.258L168.961 67.8203V106H155.461V67.8203L120.164 3.625H135.633L162.211 55.0234Z"
        stroke="black"
        stroke-width="4"
        mask="url(#path-1-outside-1)"
      />
      <path
        d="M282.797 3.625V73.2344C282.75 82.8906 279.703 90.7891 273.656 96.9297C267.656 103.07 259.5 106.516 249.188 107.266L245.602 107.406C234.398 107.406 225.469 104.383 218.812 98.3359C212.156 92.2891 208.781 83.9688 208.688 73.375V3.625H222.047V72.9531C222.047 80.3594 224.086 86.125 228.164 90.25C232.242 94.3281 238.055 96.3672 245.602 96.3672C253.242 96.3672 259.078 94.3281 263.109 90.25C267.188 86.1719 269.227 80.4297 269.227 73.0234V3.625H282.797Z"
        stroke="black"
        stroke-width="4"
        mask="url(#path-1-outside-1)"
      />
      <path
        d="M334.266 60.3672C322.688 57.0391 314.25 52.9609 308.953 48.1328C303.703 43.2578 301.078 37.2578 301.078 30.1328C301.078 22.0703 304.289 15.4141 310.711 10.1641C317.18 4.86719 325.57 2.21875 335.883 2.21875C342.914 2.21875 349.172 3.57812 354.656 6.29688C360.188 9.01562 364.453 12.7656 367.453 17.5469C370.5 22.3281 372.023 27.5547 372.023 33.2266H358.453C358.453 27.0391 356.484 22.1875 352.547 18.6719C348.609 15.1094 343.055 13.3281 335.883 13.3281C329.227 13.3281 324.023 14.8047 320.273 17.7578C316.57 20.6641 314.719 24.7188 314.719 29.9219C314.719 34.0938 316.477 37.6328 319.992 40.5391C323.555 43.3984 329.578 46.0234 338.062 48.4141C346.594 50.8047 353.25 53.4531 358.031 56.3594C362.859 59.2188 366.422 62.5703 368.719 66.4141C371.062 70.2578 372.234 74.7812 372.234 79.9844C372.234 88.2812 369 94.9375 362.531 99.9531C356.062 104.922 347.414 107.406 336.586 107.406C329.555 107.406 322.992 106.07 316.898 103.398C310.805 100.68 306.094 96.9766 302.766 92.2891C299.484 87.6016 297.844 82.2812 297.844 76.3281H311.414C311.414 82.5156 313.688 87.4141 318.234 91.0234C322.828 94.5859 328.945 96.3672 336.586 96.3672C343.711 96.3672 349.172 94.9141 352.969 92.0078C356.766 89.1016 358.664 85.1406 358.664 80.125C358.664 75.1094 356.906 71.2422 353.391 68.5234C349.875 65.7578 343.5 63.0391 334.266 60.3672Z"
        stroke="black"
        stroke-width="4"
        mask="url(#path-1-outside-1)"
      />
      <path
        d="M468.281 106H454.711V58.6797H403.102V106H389.602V3.625H403.102V47.6406H454.711V3.625H468.281V106Z"
        stroke="black"
        stroke-width="4"
        mask="url(#path-1-outside-1)"
      />
      <path
        d="M584.508 79.2812H541.617L531.984 106H518.062L557.156 3.625H568.969L608.133 106H594.281L584.508 79.2812ZM545.695 68.1719H580.5L563.062 20.2891L545.695 68.1719Z"
        stroke="black"
        stroke-width="4"
        mask="url(#path-1-outside-1)"
      />
      <path
        d="M696.656 92.5703C693.188 97.5391 688.336 101.266 682.102 103.75C675.914 106.188 668.695 107.406 660.445 107.406C652.102 107.406 644.695 105.461 638.227 101.57C631.758 97.6328 626.742 92.0547 623.18 84.8359C619.664 77.6172 617.859 69.25 617.766 59.7344V50.8047C617.766 35.3828 621.352 23.4297 628.523 14.9453C635.742 6.46094 645.867 2.21875 658.898 2.21875C669.586 2.21875 678.188 4.96094 684.703 10.4453C691.219 15.8828 695.203 23.6172 696.656 33.6484H683.156C680.625 20.1016 672.562 13.3281 658.969 13.3281C649.922 13.3281 643.055 16.5156 638.367 22.8906C633.727 29.2188 631.383 38.4062 631.336 50.4531V58.8203C631.336 70.3047 633.961 79.4453 639.211 86.2422C644.461 92.9922 651.562 96.3672 660.516 96.3672C665.578 96.3672 670.008 95.8047 673.805 94.6797C677.602 93.5547 680.742 91.6562 683.227 88.9844V65.9922H659.531V55.0234H696.656V92.5703Z"
        stroke="black"
        stroke-width="4"
        mask="url(#path-1-outside-1)"
      />
      <path
        d="M775.758 79.2812H732.867L723.234 106H709.312L748.406 3.625H760.219L799.383 106H785.531L775.758 79.2812ZM736.945 68.1719H771.75L754.312 20.2891L736.945 68.1719Z"
        stroke="black"
        stroke-width="4"
        mask="url(#path-1-outside-1)"
      />
      <path
        d="M850.711 64.5859H826.664V106H813.094V3.625H846.984C858.516 3.625 867.375 6.25 873.562 11.5C879.797 16.75 882.914 24.3906 882.914 34.4219C882.914 40.7969 881.18 46.3516 877.711 51.0859C874.289 55.8203 869.508 59.3594 863.367 61.7031L887.414 105.156V106H872.93L850.711 64.5859ZM826.664 53.5469H847.406C854.109 53.5469 859.43 51.8125 863.367 48.3438C867.352 44.875 869.344 40.2344 869.344 34.4219C869.344 28.0938 867.445 23.2422 863.648 19.8672C859.898 16.4922 854.461 14.7812 847.336 14.7344H826.664V53.5469Z"
        stroke="black"
        stroke-width="4"
        mask="url(#path-1-outside-1)"
      />
      <path
        d="M923.977 73.7266L925.945 87.2266L928.828 75.0625L949.078 3.625H960.469L980.227 75.0625L983.039 87.4375L985.219 73.6562L1001.11 3.625H1014.68L989.859 106H977.555L956.461 31.3984L954.844 23.5938L953.227 31.3984L931.359 106H919.055L894.305 3.625H907.805L923.977 73.7266Z"
        stroke="black"
        stroke-width="4"
        mask="url(#path-1-outside-1)"
      />
      <path
        d="M1083.16 79.2812H1040.27L1030.64 106H1016.72L1055.81 3.625H1067.62L1106.79 106H1092.94L1083.16 79.2812ZM1044.35 68.1719H1079.16L1061.72 20.2891L1044.35 68.1719Z"
        stroke="black"
        stroke-width="4"
        mask="url(#path-1-outside-1)"
      />
      <path
        d="M1134.14 94.9609H1182.66V106H1120.57V3.625H1134.14V94.9609Z"
        stroke="black"
        stroke-width="4"
        mask="url(#path-1-outside-1)"
      />
    </svg>